PathFileType	4	(X/Y/Z)	C:\Users\u0088756\Documents\documenten\fwo_project_balance\Data\SyncDataCardiff_Elderly\osimData\pp_3\Static.trc
DataRate	CameraRate	NumFrames	NumMarkers	Units	OrigDataRate	OrigDataStartFrame	OrigNumFrames
200.000000	200.000000	6	50	m	200.000000	184	733
Frame#	Times	LASI			RASI			LPSI			RPSI			RKNE			RKNEmed			RTHI			RTHI2			RTHI3			RANK			RANKmed			RTIB			RTIB2			RTIB3			RTOE			RHEE			RLatFoot			LKNE			LKNEmed			LTHI			LTHI2			LTHI3			LANK			LANKmed			LTIB			LTIB2			LTIB3			LTOE			LHEE			LLatFoot			Block1			Block2			Block3			Block4			CLAV			RSHO			LSHO			C7			LELB			LUA1			LWRA			LWRB			LLA1			LFIN			RELB			RUA1			RWRA			RWRB			RLA1			RFIN
		X1	Y1	Z1	X2	Y2	Z2	X3	Y3	Z3	X4	Y4	Z4	X5	Y5	Z5	X6	Y6	Z6	X7	Y7	Z7	X8	Y8	Z8	X9	Y9	Z9	X10	Y10	Z10	X11	Y11	Z11	X12	Y12	Z12	X13	Y13	Z13	X14	Y14	Z14	X15	Y15	Z15	X16	Y16	Z16	X17	Y17	Z17	X18	Y18	Z18	X19	Y19	Z19	X20	Y20	Z20	X21	Y21	Z21	X22	Y22	Z22	X23	Y23	Z23	X24	Y24	Z24	X25	Y25	Z25	X26	Y26	Z26	X27	Y27	Z27	X28	Y28	Z28	X29	Y29	Z29	X30	Y30	Z30	X31	Y31	Z31	X32	Y32	Z32	X33	Y33	Z33	X34	Y34	Z34	X35	Y35	Z35	X36	Y36	Z36	X37	Y37	Z37	X38	Y38	Z38	X39	Y39	Z39	X40	Y40	Z40	X41	Y41	Z41	X42	Y42	Z42	X43	Y43	Z43	X44	Y44	Z44	X45	Y45	Z45	X46	Y46	Z46	X47	Y47	Z47	X48	Y48	Z48	X49	Y49	Z49	X50	Y50	Z50

184	0.92	-0.15194	0.99789	-0.13371	-0.16103	0.99125	0.060885	-0.39871	0.95613	-0.092547	-0.39452	0.96104	-0.0011306	-0.28335	0.49575	0.11592	-0.26373	0.48528	0.0089949	-0.22966	0.68861	0.13371	-0.30025	0.68649	0.13265	-0.26288	0.64333	0.13425	-0.33473	0.11313	0.1156	-0.30033	0.11363	0.040943	-0.26291	0.29642	0.094062	-0.31458	0.30461	0.13735	-0.2904	0.25898	0.12419	-0.15488	0.053571	0.10966	-0.38506	0.040926	0.071088	-0.2993	0.036309	0.15943	-0.31574	0.50362	-0.20062	-0.28816	0.49218	-0.08156	-0.27728	0.66802	-0.22081	-0.33395	0.65598	-0.19165	-0.29599	0.61392	-0.21048	-0.32418	0.12085	-0.20128	-0.29789	0.11227	-0.12816	-0.26755	0.31553	-0.17164	-0.31305	0.3122	-0.2193	-0.28585	0.26636	-0.1989	-0.1795	0.055811	-0.1879	-0.38212	0.044951	-0.1466	-0.26347	0.030414	-0.26984	0.47963	0.045342	-0.63451	-0.36801	0.036831	-0.63309	-0.40104	0.033404	0.6295	0.51642	0.049352	0.61824	-0.2103	1.3741	-0.037631	-0.30049	1.3875	0.15635	-0.31564	1.4005	-0.23476	-0.32702	1.4872	-0.041049	-0.30115	1.0772	-0.27989	-0.29087	1.1702	-0.26734	-0.18822	0.82518	-0.2478	-0.24764	0.81653	-0.29566	-0.22999	0.94209	-0.28485	-0.18728	0.77777	-0.29912	-0.29608	1.0734	0.21111	-0.28286	1.1912	0.19145	-0.16808	0.82143	0.1879	-0.23734	0.81015	0.21845	-0.22771	0.95704	0.22026	-0.18494	0.76943	0.23531
185	0.925	-0.15186	0.99791	-0.13375	-0.16089	0.99127	0.060821	-0.3987	0.95611	-0.092495	-0.39449	0.96105	-0.0011091	-0.2832	0.49577	0.11586	-0.26369	0.48527	0.0089754	-0.22948	0.68858	0.13365	-0.30011	0.68648	0.13265	-0.26273	0.64334	0.13423	-0.3347	0.11317	0.11561	-0.3003	0.1136	0.040933	-0.26283	0.29643	0.094028	-0.31459	0.3046	0.13731	-0.29036	0.25899	0.1242	-0.15487	0.053553	0.1097	-0.38507	0.040921	0.07106	-0.29927	0.036322	0.1594	-0.31564	0.50359	-0.20062	-0.28812	0.49218	-0.081572	-0.27726	0.66803	-0.22081	-0.33392	0.65599	-0.19166	-0.29593	0.61392	-0.21047	-0.32418	0.12087	-0.20131	-0.29787	0.11227	-0.12819	-0.26749	0.31555	-0.17164	-0.31302	0.31227	-0.21939	-0.28584	0.26635	-0.19892	-0.17949	0.055805	-0.18789	-0.38214	0.044962	-0.1466	-0.26341	0.030429	-0.26983	0.47964	0.045344	-0.63448	-0.36801	0.036829	-0.6331	-0.40103	0.033391	0.62948	0.51642	0.049334	0.61824	-0.21024	1.3741	-0.037631	-0.30054	1.3874	0.1562	-0.31568	1.4005	-0.23472	-0.32699	1.4872	-0.04098	-0.3012	1.0772	-0.27988	-0.29089	1.1702	-0.26734	-0.18822	0.82517	-0.24786	-0.24764	0.81653	-0.29568	-0.23	0.94209	-0.28484	-0.18736	0.77773	-0.29921	-0.29594	1.0734	0.21109	-0.28274	1.1911	0.19147	-0.16799	0.8214	0.18787	-0.2372	0.81013	0.21841	-0.2276	0.957	0.22028	-0.18478	0.76939	0.23529
186	0.93	-0.15183	0.99792	-0.13382	-0.16078	0.99125	0.060765	-0.39849	0.95611	-0.092439	-0.3944	0.96103	-0.0010568	-0.28313	0.49577	0.11585	-0.26362	0.48526	0.0089577	-0.22923	0.68861	0.13349	-0.29997	0.68647	0.13267	-0.26272	0.64334	0.13414	-0.3347	0.11316	0.11563	-0.30033	0.11361	0.040897	-0.26279	0.29644	0.094055	-0.31455	0.30462	0.1373	-0.29034	0.25898	0.1242	-0.15486	0.053557	0.10966	-0.38511	0.040917	0.071117	-0.29929	0.036313	0.15939	-0.3156	0.50356	-0.2006	-0.2881	0.49217	-0.081574	-0.27726	0.66803	-0.22079	-0.3339	0.65598	-0.19166	-0.29592	0.61393	-0.21047	-0.32414	0.12086	-0.20131	-0.2979	0.11224	-0.12817	-0.26747	0.31555	-0.17162	-0.31306	0.31221	-0.21943	-0.28582	0.26636	-0.1989	-0.17951	0.055826	-0.18787	-0.3821	0.044963	-0.14663	-0.26343	0.0304	-0.26981	0.47962	0.04533	-0.63456	-0.36801	0.036815	-0.63307	-0.40103	0.033401	0.62948	0.51642	0.049331	0.61824	-0.21019	1.3741	-0.037667	-0.3004	1.3874	0.15622	-0.31573	1.4005	-0.23468	-0.32696	1.4872	-0.040923	-0.30122	1.0772	-0.27982	-0.29091	1.1702	-0.26729	-0.18826	0.82518	-0.2479	-0.24771	0.81653	-0.29567	-0.23008	0.9421	-0.28487	-0.18742	0.77774	-0.29926	-0.29579	1.0733	0.2111	-0.28265	1.1912	0.1917	-0.16788	0.82138	0.18784	-0.23827	0.80999	0.21934	-0.22747	0.95699	0.22029	-0.18468	0.76937	0.23525
187	0.935	-0.15183	0.99791	-0.13389	-0.16061	0.99127	0.060688	-0.39836	0.9561	-0.092364	-0.39435	0.96103	-0.00099635	-0.28316	0.49573	0.11587	-0.26356	0.48527	0.0089418	-0.22904	0.68859	0.13338	-0.29982	0.68646	0.13266	-0.26283	0.64336	0.13402	-0.33468	0.11315	0.11561	-0.30032	0.11359	0.040931	-0.26276	0.29645	0.094056	-0.3145	0.30464	0.13727	-0.29031	0.25901	0.12418	-0.15488	0.053543	0.10967	-0.38509	0.040931	0.071073	-0.29929	0.036315	0.15943	-0.31569	0.50361	-0.20068	-0.28807	0.49217	-0.081574	-0.27725	0.66802	-0.22085	-0.33388	0.65599	-0.19164	-0.29597	0.61392	-0.21053	-0.32414	0.12086	-0.2013	-0.2979	0.11226	-0.12816	-0.26746	0.31555	-0.17161	-0.31309	0.31211	-0.21932	-0.2858	0.26636	-0.19892	-0.1795	0.055822	-0.18785	-0.38213	0.044943	-0.14662	-0.26344	0.03041	-0.26984	0.47961	0.045326	-0.63455	-0.36824	0.03676	-0.63288	-0.40104	0.033393	0.62949	0.51644	0.049347	0.61823	-0.21016	1.3741	-0.037666	-0.30006	1.3875	0.15641	-0.31576	1.4005	-0.23464	-0.32693	1.4872	-0.040884	-0.30127	1.0772	-0.27983	-0.29095	1.1702	-0.26727	-0.18826	0.82518	-0.24795	-0.24774	0.81655	-0.29571	-0.23003	0.9421	-0.28484	-0.18746	0.77774	-0.29929	-0.29565	1.0733	0.21111	-0.28251	1.1911	0.19165	-0.16773	0.82135	0.1878	-0.23831	0.80997	0.21946	-0.22728	0.95697	0.22029	-0.18454	0.76935	0.23523
188	0.94	-0.15177	0.99794	-0.13394	-0.16049	0.99124	0.060636	-0.39833	0.95605	-0.092308	-0.39415	0.96096	-0.00089337	-0.28312	0.49574	0.11584	-0.26353	0.48527	0.0089076	-0.22889	0.68857	0.1333	-0.29967	0.68646	0.13266	-0.26286	0.64335	0.13395	-0.33467	0.11318	0.11561	-0.30028	0.11362	0.040879	-0.26273	0.29645	0.094069	-0.31446	0.30469	0.13725	-0.29032	0.25902	0.12419	-0.15489	0.053523	0.10967	-0.38503	0.040921	0.071057	-0.29929	0.036332	0.15937	-0.31562	0.5036	-0.20065	-0.28805	0.49218	-0.081585	-0.27727	0.66804	-0.2208	-0.33387	0.65597	-0.19167	-0.29597	0.61393	-0.21054	-0.32413	0.12085	-0.20129	-0.29787	0.11226	-0.12819	-0.26746	0.31554	-0.17163	-0.31309	0.31181	-0.21884	-0.28576	0.26637	-0.19893	-0.17949	0.055804	-0.18786	-0.38214	0.044961	-0.14661	-0.26348	0.030441	-0.26985	0.47963	0.045351	-0.63453	-0.36802	0.036827	-0.63309	-0.40105	0.033393	0.6295	0.51645	0.04935	0.61823	-0.21009	1.3741	-0.037679	-0.30011	1.3873	0.15629	-0.31583	1.4005	-0.23462	-0.32692	1.4872	-0.040845	-0.30132	1.0772	-0.2798	-0.291	1.1702	-0.26725	-0.1883	0.8252	-0.24799	-0.24777	0.81654	-0.29572	-0.23007	0.94211	-0.28488	-0.18749	0.77776	-0.29935	-0.29551	1.0733	0.21112	-0.28236	1.1911	0.19173	-0.16762	0.82133	0.18776	-0.23809	0.80996	0.21939	-0.22709	0.95696	0.22028	-0.18438	0.76933	0.2352
189	0.945	-0.15172	0.99794	-0.134	-0.16034	0.99125	0.060556	-0.39825	0.95602	-0.09222	-0.39401	0.96094	-0.00079027	-0.28311	0.49573	0.11581	-0.26351	0.48526	0.008907	-0.22897	0.68858	0.13334	-0.29948	0.68646	0.1327	-0.26414	0.64354	0.13385	-0.33468	0.11317	0.1156	-0.30032	0.11358	0.040929	-0.26276	0.29645	0.094092	-0.31452	0.30468	0.13723	-0.29033	0.25905	0.12417	-0.155	0.053589	0.10959	-0.38511	0.040928	0.071109	-0.29924	0.036337	0.1594	-0.31565	0.5036	-0.20067	-0.28808	0.49217	-0.081578	-0.27725	0.66802	-0.22084	-0.33384	0.65597	-0.19165	-0.29591	0.61389	-0.21052	-0.32411	0.12084	-0.20132	-0.29784	0.11227	-0.12817	-0.26743	0.31554	-0.17164	-0.31307	0.31185	-0.21884	-0.28574	0.26636	-0.19894	-0.17949	0.05581	-0.18787	-0.38213	0.044974	-0.1466	-0.26351	0.030471	-0.26991	0.47964	0.04535	-0.63452	-0.36801	0.036827	-0.63309	-0.40101	0.033412	0.62948	0.51645	0.049333	0.61822	-0.21005	1.3741	-0.037706	-0.29998	1.3873	0.15633	-0.31588	1.4005	-0.23458	-0.32685	1.4871	-0.040705	-0.30137	1.0772	-0.2798	-0.29103	1.1702	-0.26722	-0.1883	0.8252	-0.24806	-0.24783	0.81654	-0.29571	-0.23011	0.94211	-0.28489	-0.18756	0.77776	-0.29941	-0.29533	1.0733	0.21118	-0.28217	1.1911	0.19158	-0.16747	0.82131	0.18774	-0.23787	0.80999	0.21936	-0.22695	0.95693	0.22028	-0.18422	0.76931	0.23517
